# xmcd
#
# Track frame offsets: 
#        150
#        11085
#        21859
#        38719
#        54170
#        67214
#        79085
#        93258
#        105101
#        119090
#        135012
#        146096
#        160484
#        172849
#        187311
#
# Disc length: 2764 seconds
#
# Revision: 1
# Processed by: cddbd v1.5.1PL2 Copyright (c) Steve Scherf et al.
# Submitted via: ExactAudioCopy v0.95b3
#
DISCID=c30aca0f
DTITLE=Lojzo - Lojzo - Gold
DYEAR=2005
DGENRE=Folk
TTITLE0=Anca si draha ako Volvo
TTITLE1=Zita Obezita
TTITLE2=My nie sme Taliani
TTITLE3=Vincentka van Goghova
TTITLE4=Povolime skrutku (Lojzo metal)
TTITLE5=Zoll sem Zoll tam
TTITLE6=Stracam
TTITLE7=Naruby
TTITLE8=Ticho po plesine
TTITLE9=Hura na paprike
TTITLE10=Ano a normalne no ne
TTITLE11=Laz Vegaz
TTITLE12=Mucha tse-tse
TTITLE13=Stronzo
TTITLE14=Kazdy den budu vraj Vianoce
EXTD=
EXTT0=
EXTT1=
EXTT2=
EXTT3=
EXTT4=
EXTT5=
EXTT6=
EXTT7=
EXTT8=
EXTT9=
EXTT10=
EXTT11=
EXTT12=
EXTT13=
EXTT14=
PLAYORDER=
